<svg width="640" height="216" viewBox="0 0 640 216" fill="none" xmlns="http://www.w3.org/2000/svg">
<circle cx="112.5" cy="107.5" r="87.5" fill="#4B5656"/>
<circle cx="112.5" cy="107.5" r="62.0455" fill="#00C2CB"/>
<circle cx="112.5" cy="34.3182" r="7.95455" fill="#00C2CB"/>
<circle cx="166.591" cy="56.5909" r="7.95455" fill="#00C2CB"/>
<circle cx="188.864" cy="107.5" r="7.95455" fill="#00C2CB"/>
<circle cx="36.1363" cy="107.5" r="7.95455" fill="#00C2CB"/>
<circle cx="58.4091" cy="158.409" r="7.95455" fill="#00C2CB"/>
<circle cx="112.5" cy="183.864" r="7.95455" fill="#00C2CB"/>
<circle cx="166.591" cy="158.409" r="7.95455" fill="#00C2CB"/>
<circle cx="58.4091" cy="56.5909" r="7.95455" fill="#00C2CB"/>
<path d="M132.937 79.4356C133.718 78.6545 134.984 78.6545 135.765 79.4356L140.877 84.5479C141.658 85.329 141.658 86.5953 140.877 87.3763L129.81 98.4443C129.028 99.2253 127.762 99.2253 126.981 98.4443L121.869 93.3319C121.088 92.5509 121.088 91.2845 121.869 90.5035L132.937 79.4356Z" fill="#4B5656"/>
<path d="M96.4394 115.933C97.2204 115.152 98.4867 115.152 99.2678 115.933L104.38 121.045C105.161 121.826 105.161 123.093 104.38 123.874L93.3122 134.942C92.5312 135.723 91.2648 135.723 90.4838 134.942L85.3714 129.829C84.5904 129.048 84.5904 127.782 85.3714 127.001L96.4394 115.933Z" fill="#4B5656"/>
<path d="M107.353 124.941C107.353 123.837 108.248 122.941 109.353 122.941H116.583C117.687 122.941 118.583 123.837 118.583 124.941V140.594C118.583 141.698 117.687 142.594 116.583 142.594H109.353C108.248 142.594 107.353 141.698 107.353 140.594V124.941Z" fill="#4B5656"/>
<path d="M107.353 73.4706C107.353 72.366 108.248 71.4706 109.353 71.4706H116.583C117.687 71.4706 118.583 72.366 118.583 73.4706V89.123C118.583 90.2276 117.687 91.123 116.583 91.123H109.353C108.248 91.123 107.353 90.2276 107.353 89.123V73.4706Z" fill="#4B5656"/>
<path d="M121.831 123.698C121.071 122.897 121.104 121.631 121.906 120.871L127.151 115.895C127.952 115.135 129.218 115.168 129.978 115.97L140.751 127.326C141.511 128.127 141.477 129.393 140.676 130.153L135.431 135.129C134.629 135.889 133.363 135.856 132.603 135.054L121.831 123.698Z" fill="#4B5656"/>
<path d="M85.3336 86.2652C84.5735 85.4638 84.6069 84.1979 85.4082 83.4377L90.6536 78.462C91.455 77.7018 92.7209 77.7352 93.4811 78.5366L104.253 89.8925C105.013 90.6939 104.98 91.9597 104.179 92.7199L98.9333 97.6957C98.1319 98.4559 96.866 98.4225 96.1059 97.6211L85.3336 86.2652Z" fill="#4B5656"/>
<path d="M146.529 101.417C147.634 101.417 148.529 102.313 148.529 103.417L148.529 110.647C148.529 111.752 147.634 112.647 146.529 112.647L130.877 112.647C129.772 112.647 128.877 111.752 128.877 110.647L128.877 103.417C128.877 102.313 129.772 101.417 130.877 101.417L146.529 101.417Z" fill="#4B5656"/>
<path d="M95.0588 101.417C96.1634 101.417 97.0588 102.313 97.0588 103.417L97.0588 110.647C97.0588 111.752 96.1634 112.647 95.0588 112.647L79.4064 112.647C78.3018 112.647 77.4064 111.752 77.4064 110.647L77.4064 103.417C77.4064 102.313 78.3018 101.417 79.4064 101.417L95.0588 101.417Z" fill="#4B5656"/>
<ellipse cx="112.968" cy="107.5" rx="26.2032" ry="25.7353" fill="#4B5656"/>
<circle cx="113.436" cy="107.5" r="16.377" fill="#00C2CB"/>
<path d="M205.467 161.09H206.083C206.16 161.589 206.304 162.038 206.515 162.437C206.737 162.837 207.009 163.175 207.331 163.452C207.663 163.73 208.041 163.946 208.462 164.101C208.895 164.246 209.361 164.318 209.86 164.318C210.681 164.318 211.33 164.124 211.807 163.735C212.284 163.347 212.522 162.82 212.522 162.155C212.522 161.877 212.472 161.622 212.372 161.389C212.284 161.156 212.128 160.934 211.907 160.724C211.685 160.502 211.385 160.285 211.008 160.075C210.642 159.864 210.176 159.636 209.61 159.392C208.922 159.093 208.346 158.804 207.88 158.527C207.414 158.25 207.042 157.961 206.765 157.662C206.487 157.362 206.288 157.046 206.166 156.713C206.055 156.369 205.999 155.981 205.999 155.548C205.999 155.038 206.088 154.567 206.266 154.134C206.454 153.701 206.715 153.33 207.048 153.019C207.38 152.697 207.774 152.453 208.229 152.287C208.684 152.11 209.183 152.021 209.727 152.021C210.215 152.021 210.67 152.098 211.091 152.254C211.513 152.409 211.94 152.659 212.372 153.003L212.805 152.254H213.188L213.371 155.565H212.755C212.489 154.655 212.101 153.979 211.59 153.535C211.091 153.091 210.487 152.869 209.777 152.869C209.1 152.869 208.562 153.036 208.163 153.369C207.763 153.701 207.564 154.151 207.564 154.716C207.564 154.983 207.608 155.227 207.697 155.449C207.785 155.659 207.93 155.865 208.129 156.064C208.329 156.253 208.59 156.447 208.911 156.647C209.233 156.835 209.632 157.035 210.109 157.246C210.93 157.612 211.613 157.956 212.156 158.277C212.7 158.588 213.132 158.904 213.454 159.226C213.776 159.537 214.003 159.869 214.136 160.224C214.269 160.568 214.336 160.956 214.336 161.389C214.336 161.944 214.225 162.454 214.003 162.92C213.781 163.386 213.471 163.785 213.071 164.118C212.672 164.451 212.195 164.712 211.64 164.9C211.086 165.078 210.476 165.166 209.81 165.166C209.178 165.166 208.606 165.078 208.096 164.9C207.597 164.723 207.087 164.423 206.565 164.002L206.099 164.817H205.716L205.467 161.09ZM223.763 158.843C223.763 158.388 223.752 158.033 223.73 157.778C223.708 157.512 223.647 157.312 223.547 157.179C223.458 157.035 223.319 156.941 223.131 156.896C222.953 156.841 222.704 156.796 222.382 156.763V156.181H225.394V161.289C225.394 161.922 225.399 162.437 225.41 162.837C225.433 163.236 225.46 163.536 225.494 163.735C225.516 163.88 225.549 163.996 225.593 164.085C225.649 164.162 225.727 164.229 225.826 164.284C225.926 164.329 226.054 164.362 226.209 164.384C226.376 164.395 226.586 164.401 226.841 164.401V164.983L224.096 165.183L223.913 163.186H223.846C223.425 163.874 222.937 164.379 222.382 164.7C221.838 165.011 221.267 165.166 220.668 165.166C220.202 165.166 219.747 165.078 219.304 164.9C218.871 164.723 218.544 164.484 218.322 164.185C218.133 163.941 217.995 163.602 217.906 163.17C217.828 162.737 217.789 162.177 217.789 161.489V158.843C217.789 158.388 217.778 158.033 217.756 157.778C217.734 157.512 217.673 157.312 217.573 157.179C217.484 157.035 217.346 156.941 217.157 156.896C216.98 156.841 216.73 156.796 216.408 156.763V156.181H219.42V160.724C219.42 161.933 219.559 162.809 219.836 163.353C220.124 163.896 220.579 164.168 221.201 164.168C222.177 164.168 222.937 163.53 223.48 162.254C223.536 162.121 223.58 161.999 223.613 161.888C223.647 161.777 223.674 161.655 223.697 161.522C223.719 161.389 223.735 161.239 223.746 161.073C223.758 160.907 223.763 160.707 223.763 160.474V158.843ZM231.716 162.338C231.716 162.804 231.727 163.17 231.749 163.436C231.771 163.702 231.827 163.907 231.915 164.052C232.015 164.185 232.154 164.273 232.331 164.318C232.509 164.362 232.758 164.395 233.08 164.418V165H228.654V164.418C228.976 164.395 229.231 164.362 229.419 164.318C229.608 164.273 229.752 164.185 229.852 164.052C229.952 163.918 230.013 163.73 230.035 163.486C230.068 163.231 230.085 162.892 230.085 162.471V160.341C230.085 159.708 230.074 159.182 230.052 158.76C230.041 158.338 230.013 158.05 229.968 157.895C229.935 157.751 229.896 157.64 229.852 157.562C229.808 157.473 229.736 157.407 229.636 157.362C229.536 157.307 229.403 157.273 229.236 157.262C229.081 157.24 228.876 157.229 228.621 157.229V156.647L231.333 156.014L231.549 157.678H231.632C232.132 157.113 232.653 156.697 233.197 156.43C233.751 156.153 234.361 156.014 235.027 156.014C235.726 156.014 236.314 156.159 236.791 156.447C237.268 156.724 237.601 157.129 237.789 157.662H237.856C238.266 157.14 238.766 156.735 239.353 156.447C239.941 156.159 240.568 156.014 241.234 156.014C241.755 156.014 242.227 156.103 242.648 156.281C243.081 156.447 243.408 156.68 243.63 156.98C243.83 157.235 243.968 157.573 244.046 157.995C244.135 158.405 244.179 158.971 244.179 159.692V162.338C244.179 162.792 244.19 163.153 244.212 163.419C244.246 163.685 244.307 163.891 244.395 164.035C244.484 164.179 244.617 164.273 244.795 164.318C244.983 164.362 245.238 164.395 245.56 164.418V165H241.134V164.418C241.445 164.407 241.694 164.379 241.883 164.334C242.071 164.279 242.216 164.185 242.315 164.052C242.415 163.907 242.476 163.713 242.498 163.469C242.532 163.225 242.548 162.892 242.548 162.471V160.374C242.548 159.742 242.515 159.209 242.448 158.777C242.382 158.333 242.271 157.978 242.116 157.712C241.96 157.434 241.755 157.235 241.5 157.113C241.256 156.991 240.956 156.93 240.601 156.93C240.113 156.93 239.653 157.068 239.22 157.346C238.799 157.612 238.466 157.972 238.222 158.427C238.166 158.538 238.117 158.649 238.072 158.76C238.039 158.86 238.011 158.976 237.989 159.109C237.967 159.231 237.95 159.381 237.939 159.559C237.939 159.736 237.939 159.958 237.939 160.224V162.338C237.939 162.792 237.95 163.153 237.972 163.419C237.995 163.685 238.05 163.891 238.139 164.035C238.239 164.179 238.383 164.273 238.571 164.318C238.76 164.362 239.015 164.395 239.337 164.418V165H234.911V164.418C235.221 164.395 235.471 164.362 235.659 164.318C235.848 164.273 235.987 164.185 236.075 164.052C236.175 163.918 236.236 163.73 236.258 163.486C236.292 163.231 236.308 162.892 236.308 162.471V160.374C236.308 159.731 236.275 159.193 236.208 158.76C236.142 158.316 236.031 157.961 235.876 157.695C235.731 157.418 235.537 157.224 235.293 157.113C235.049 156.991 234.75 156.93 234.395 156.93C233.896 156.93 233.424 157.068 232.98 157.346C232.548 157.612 232.22 157.972 231.999 158.427C231.943 158.538 231.893 158.649 231.849 158.76C231.816 158.86 231.788 158.976 231.766 159.109C231.743 159.231 231.727 159.381 231.716 159.559C231.716 159.736 231.716 159.958 231.716 160.224V162.338ZM250.523 162.354C250.523 162.787 250.54 163.136 250.573 163.403C250.617 163.658 250.695 163.863 250.806 164.018C250.917 164.162 251.072 164.262 251.272 164.318C251.471 164.373 251.738 164.407 252.07 164.418V165H247.295V164.418C247.628 164.407 247.899 164.373 248.11 164.318C248.321 164.251 248.482 164.151 248.593 164.018C248.715 163.874 248.792 163.68 248.826 163.436C248.87 163.181 248.892 162.859 248.892 162.471V160.341C248.892 159.697 248.881 159.17 248.859 158.76C248.848 158.338 248.82 158.05 248.776 157.895C248.72 157.64 248.593 157.468 248.393 157.379C248.193 157.279 247.816 157.229 247.261 157.229V156.647L250.523 156.014V162.354ZM248.609 152.636C248.609 152.348 248.709 152.104 248.909 151.904C249.109 151.705 249.353 151.605 249.641 151.605C249.929 151.605 250.173 151.705 250.373 151.904C250.573 152.104 250.673 152.348 250.673 152.636C250.673 152.925 250.573 153.169 250.373 153.369C250.173 153.568 249.929 153.668 249.641 153.668C249.353 153.668 249.109 153.568 248.909 153.369C248.709 153.169 248.609 152.925 248.609 152.636ZM256.826 162.388C256.826 162.842 256.838 163.203 256.86 163.469C256.882 163.724 256.937 163.924 257.026 164.068C257.126 164.201 257.265 164.29 257.442 164.334C257.631 164.379 257.886 164.412 258.208 164.434V165H253.848V164.434C254.159 164.412 254.403 164.379 254.58 164.334C254.769 164.29 254.913 164.201 255.013 164.068C255.113 163.935 255.174 163.746 255.196 163.502C255.229 163.258 255.246 162.926 255.246 162.504V160.291C255.246 158.971 255.212 158.167 255.146 157.878C255.113 157.734 255.068 157.617 255.013 157.529C254.968 157.429 254.896 157.357 254.796 157.312C254.697 157.257 254.569 157.224 254.414 157.212C254.258 157.19 254.059 157.179 253.815 157.179V156.647L256.477 156.014L256.677 157.662H256.743C257.165 157.14 257.658 156.735 258.224 156.447C258.79 156.159 259.406 156.014 260.071 156.014C260.582 156.014 261.048 156.098 261.469 156.264C261.891 156.43 262.212 156.658 262.434 156.946C262.623 157.201 262.756 157.534 262.834 157.945C262.911 158.344 262.95 158.899 262.95 159.609V162.388C262.95 162.842 262.961 163.203 262.983 163.469C263.017 163.724 263.078 163.924 263.166 164.068C263.255 164.201 263.388 164.29 263.566 164.334C263.754 164.379 263.998 164.412 264.298 164.434V165H259.988V164.434C260.299 164.423 260.543 164.395 260.72 164.351C260.909 164.296 261.048 164.201 261.136 164.068C261.236 163.935 261.297 163.746 261.319 163.502C261.353 163.247 261.369 162.914 261.369 162.504V160.308C261.369 159.675 261.336 159.143 261.269 158.71C261.203 158.277 261.092 157.928 260.937 157.662C260.792 157.396 260.598 157.207 260.354 157.096C260.11 156.974 259.816 156.913 259.472 156.913C258.973 156.913 258.513 157.046 258.091 157.312C257.681 157.567 257.359 157.922 257.126 158.377C257.071 158.488 257.021 158.594 256.976 158.693C256.943 158.793 256.915 158.91 256.893 159.043C256.871 159.176 256.854 159.331 256.843 159.509C256.832 159.675 256.826 159.892 256.826 160.158V162.388ZM269.331 162.354C269.331 162.787 269.347 163.136 269.381 163.403C269.425 163.658 269.503 163.863 269.614 164.018C269.724 164.162 269.88 164.262 270.079 164.318C270.279 164.373 270.545 164.407 270.878 164.418V165H266.103V164.418C266.435 164.407 266.707 164.373 266.918 164.318C267.129 164.251 267.29 164.151 267.4 164.018C267.522 163.874 267.6 163.68 267.633 163.436C267.678 163.181 267.7 162.859 267.7 162.471V160.341C267.7 159.697 267.689 159.17 267.667 158.76C267.656 158.338 267.628 158.05 267.583 157.895C267.528 157.64 267.4 157.468 267.201 157.379C267.001 157.279 266.624 157.229 266.069 157.229V156.647L269.331 156.014V162.354ZM267.417 152.636C267.417 152.348 267.517 152.104 267.717 151.904C267.916 151.705 268.16 151.605 268.449 151.605C268.737 151.605 268.981 151.705 269.181 151.904C269.381 152.104 269.48 152.348 269.48 152.636C269.48 152.925 269.381 153.169 269.181 153.369C268.981 153.568 268.737 153.668 268.449 153.668C268.16 153.668 267.916 153.568 267.717 153.369C267.517 153.169 267.417 152.925 267.417 152.636ZM273.471 165H273.105V162.138H273.521C273.954 163.702 274.741 164.484 275.884 164.484C276.328 164.484 276.677 164.379 276.932 164.168C277.198 163.946 277.332 163.613 277.332 163.17C277.332 163.003 277.304 162.865 277.248 162.754C277.204 162.632 277.11 162.51 276.965 162.388C276.832 162.254 276.638 162.105 276.383 161.938C276.139 161.772 275.812 161.561 275.401 161.306C275.024 161.073 274.697 160.857 274.42 160.657C274.142 160.457 273.909 160.258 273.721 160.058C273.532 159.847 273.388 159.625 273.288 159.392C273.199 159.159 273.155 158.888 273.155 158.577C273.155 158.2 273.216 157.856 273.338 157.545C273.471 157.224 273.649 156.952 273.87 156.73C274.092 156.508 274.353 156.336 274.652 156.214C274.952 156.081 275.279 156.014 275.634 156.014C275.934 156.014 276.244 156.064 276.566 156.164C276.888 156.253 277.171 156.375 277.415 156.53L277.748 156.181H278.064V158.577H277.631C277.387 157.9 277.121 157.418 276.832 157.129C276.544 156.841 276.189 156.697 275.767 156.697C275.39 156.697 275.085 156.796 274.852 156.996C274.63 157.196 274.519 157.473 274.519 157.828C274.519 158.017 274.547 158.183 274.603 158.327C274.669 158.46 274.769 158.594 274.902 158.727C275.035 158.86 275.202 158.999 275.401 159.143C275.612 159.276 275.862 159.431 276.15 159.609C276.627 159.908 277.032 160.174 277.365 160.407C277.709 160.64 277.986 160.873 278.197 161.106C278.408 161.328 278.563 161.561 278.663 161.805C278.763 162.049 278.812 162.327 278.812 162.637C278.812 163.425 278.557 164.046 278.047 164.501C277.537 164.945 276.866 165.166 276.034 165.166C275.168 165.166 274.425 164.917 273.804 164.418L273.471 165ZM281.094 157.229V156.613C281.682 156.27 282.142 155.926 282.475 155.582C282.808 155.238 283.063 154.827 283.24 154.35H283.723V156.447H285.953V157.229H283.723V162.288C283.723 162.676 283.74 163.003 283.773 163.269C283.817 163.536 283.884 163.752 283.973 163.918C284.061 164.074 284.178 164.185 284.322 164.251C284.466 164.318 284.649 164.351 284.871 164.351C285.148 164.351 285.381 164.296 285.57 164.185C285.77 164.063 285.964 163.863 286.152 163.586L286.568 163.902C286.413 164.312 286.141 164.628 285.753 164.85C285.376 165.061 284.904 165.166 284.339 165.166C283.606 165.166 283.046 164.994 282.658 164.651C282.281 164.296 282.092 163.791 282.092 163.136V157.229H281.094ZM291.243 162.354C291.243 162.809 291.254 163.17 291.276 163.436C291.299 163.702 291.354 163.907 291.443 164.052C291.543 164.185 291.681 164.273 291.859 164.318C292.036 164.362 292.286 164.395 292.608 164.418V165H288.181V164.418C288.503 164.407 288.758 164.379 288.947 164.334C289.135 164.279 289.28 164.185 289.379 164.052C289.479 163.918 289.54 163.73 289.562 163.486C289.596 163.231 289.612 162.892 289.612 162.471V160.524C289.612 159.769 289.601 159.182 289.579 158.76C289.568 158.338 289.513 158.028 289.413 157.828C289.324 157.628 289.18 157.512 288.98 157.479C288.78 157.434 288.503 157.412 288.148 157.412V156.83L291.06 156.197L291.293 158.261H291.36C291.504 157.928 291.681 157.623 291.892 157.346C292.114 157.068 292.352 156.835 292.608 156.647C292.863 156.447 293.129 156.292 293.406 156.181C293.684 156.07 293.966 156.014 294.255 156.014C294.61 156.014 294.887 156.103 295.087 156.281C295.298 156.447 295.403 156.674 295.403 156.963C295.403 157.229 295.32 157.44 295.153 157.595C294.987 157.739 294.749 157.812 294.438 157.812C294.26 157.812 294.111 157.789 293.989 157.745C293.867 157.701 293.756 157.656 293.656 157.612C293.567 157.556 293.478 157.506 293.39 157.462C293.312 157.418 293.223 157.396 293.123 157.396C292.824 157.396 292.524 157.59 292.225 157.978C291.925 158.355 291.692 158.838 291.526 159.426C291.437 159.747 291.365 160.113 291.31 160.524C291.265 160.923 291.243 161.345 291.243 161.788V162.354ZM301.54 156.014C302.173 156.014 302.772 156.131 303.337 156.364C303.903 156.586 304.397 156.896 304.818 157.296C305.251 157.695 305.589 158.172 305.833 158.727C306.089 159.27 306.216 159.869 306.216 160.524C306.216 161.201 306.089 161.822 305.833 162.388C305.589 162.953 305.251 163.441 304.818 163.852C304.397 164.262 303.903 164.584 303.337 164.817C302.772 165.05 302.173 165.166 301.54 165.166C300.919 165.166 300.326 165.055 299.76 164.834C299.205 164.601 298.717 164.279 298.295 163.868C297.874 163.458 297.541 162.97 297.297 162.404C297.053 161.827 296.931 161.201 296.931 160.524C296.931 159.869 297.053 159.265 297.297 158.71C297.541 158.155 297.874 157.678 298.295 157.279C298.717 156.88 299.205 156.569 299.76 156.347C300.326 156.125 300.919 156.014 301.54 156.014ZM301.54 156.813C301.13 156.813 300.753 156.902 300.409 157.079C300.076 157.257 299.788 157.512 299.543 157.845C299.31 158.167 299.127 158.56 298.994 159.026C298.872 159.481 298.811 159.986 298.811 160.54C298.811 161.117 298.872 161.639 298.994 162.105C299.127 162.571 299.31 162.97 299.543 163.303C299.788 163.624 300.076 163.874 300.409 164.052C300.742 164.229 301.119 164.318 301.54 164.318C301.962 164.318 302.345 164.229 302.688 164.052C303.032 163.874 303.326 163.619 303.57 163.286C303.814 162.953 304.003 162.554 304.136 162.088C304.269 161.622 304.336 161.106 304.336 160.54C304.336 159.986 304.269 159.481 304.136 159.026C304.003 158.571 303.814 158.183 303.57 157.861C303.326 157.529 303.032 157.273 302.688 157.096C302.345 156.907 301.962 156.813 301.54 156.813ZM309.283 165H308.917V162.138H309.333C309.765 163.702 310.553 164.484 311.696 164.484C312.139 164.484 312.489 164.379 312.744 164.168C313.01 163.946 313.143 163.613 313.143 163.17C313.143 163.003 313.116 162.865 313.06 162.754C313.016 162.632 312.921 162.51 312.777 162.388C312.644 162.254 312.45 162.105 312.195 161.938C311.951 161.772 311.623 161.561 311.213 161.306C310.836 161.073 310.509 160.857 310.231 160.657C309.954 160.457 309.721 160.258 309.532 160.058C309.344 159.847 309.2 159.625 309.1 159.392C309.011 159.159 308.967 158.888 308.967 158.577C308.967 158.2 309.028 157.856 309.15 157.545C309.283 157.224 309.46 156.952 309.682 156.73C309.904 156.508 310.165 156.336 310.464 156.214C310.764 156.081 311.091 156.014 311.446 156.014C311.746 156.014 312.056 156.064 312.378 156.164C312.7 156.253 312.982 156.375 313.226 156.53L313.559 156.181H313.875V158.577H313.443C313.199 157.9 312.932 157.418 312.644 157.129C312.356 156.841 312.001 156.697 311.579 156.697C311.202 156.697 310.897 156.796 310.664 156.996C310.442 157.196 310.331 157.473 310.331 157.828C310.331 158.017 310.359 158.183 310.414 158.327C310.481 158.46 310.581 158.594 310.714 158.727C310.847 158.86 311.013 158.999 311.213 159.143C311.424 159.276 311.673 159.431 311.962 159.609C312.439 159.908 312.844 160.174 313.177 160.407C313.52 160.64 313.798 160.873 314.009 161.106C314.219 161.328 314.375 161.561 314.474 161.805C314.574 162.049 314.624 162.327 314.624 162.637C314.624 163.425 314.369 164.046 313.859 164.501C313.349 164.945 312.677 165.166 311.845 165.166C310.98 165.166 310.237 164.917 309.616 164.418L309.283 165ZM329.903 163.602H329.837C329.437 164.168 329.01 164.573 328.555 164.817C328.112 165.05 327.585 165.166 326.975 165.166C326.342 165.166 325.76 165.055 325.227 164.834C324.706 164.601 324.251 164.284 323.863 163.885C323.486 163.475 323.186 162.987 322.964 162.421C322.754 161.855 322.648 161.239 322.648 160.574C322.648 159.919 322.754 159.315 322.964 158.76C323.186 158.194 323.486 157.712 323.863 157.312C324.251 156.902 324.712 156.586 325.244 156.364C325.777 156.131 326.353 156.014 326.975 156.014C327.507 156.014 327.979 156.103 328.389 156.281C328.811 156.458 329.215 156.741 329.604 157.129V155.432C329.604 154.8 329.593 154.273 329.57 153.851C329.559 153.43 329.537 153.141 329.504 152.986C329.448 152.742 329.293 152.57 329.038 152.47C328.783 152.37 328.367 152.32 327.79 152.32V151.821L331.201 151.189V160.79C331.201 161.556 331.207 162.188 331.218 162.687C331.229 163.175 331.262 163.525 331.318 163.735C331.351 163.868 331.39 163.979 331.434 164.068C331.49 164.157 331.562 164.229 331.65 164.284C331.75 164.329 331.878 164.362 332.033 164.384C332.2 164.407 332.41 164.418 332.666 164.418V164.983L329.903 165.166V163.602ZM329.57 159.925C329.57 159.348 329.537 158.91 329.471 158.61C329.415 158.311 329.299 158.05 329.121 157.828C328.866 157.495 328.539 157.246 328.139 157.079C327.751 156.902 327.363 156.813 326.975 156.813C326.176 156.813 325.566 157.146 325.144 157.812C324.734 158.466 324.529 159.359 324.529 160.491C324.529 161.079 324.578 161.611 324.678 162.088C324.789 162.565 324.945 162.975 325.144 163.319C325.355 163.652 325.61 163.913 325.91 164.101C326.22 164.279 326.575 164.368 326.975 164.368C327.174 164.368 327.374 164.345 327.574 164.301C327.784 164.257 327.984 164.19 328.173 164.101C328.372 164.002 328.555 163.891 328.722 163.769C328.888 163.636 329.027 163.486 329.138 163.319C329.293 163.075 329.404 162.781 329.471 162.437C329.537 162.094 329.57 161.622 329.57 161.023V159.925ZM342.596 163.452C341.653 164.595 340.483 165.166 339.085 165.166C338.431 165.166 337.837 165.061 337.305 164.85C336.772 164.628 336.312 164.323 335.924 163.935C335.547 163.536 335.253 163.064 335.042 162.521C334.831 161.966 334.726 161.356 334.726 160.69C334.726 160.014 334.837 159.387 335.058 158.81C335.28 158.233 335.591 157.739 335.99 157.329C336.401 156.919 336.883 156.597 337.438 156.364C338.004 156.131 338.619 156.014 339.285 156.014C340.361 156.014 341.193 156.308 341.781 156.896C342.369 157.473 342.663 158.305 342.663 159.392C342.663 159.548 342.63 159.642 342.563 159.675C342.508 159.708 342.369 159.725 342.147 159.725H336.672C336.65 159.814 336.634 159.925 336.623 160.058C336.611 160.18 336.606 160.319 336.606 160.474C336.606 161.051 336.672 161.578 336.806 162.055C336.95 162.521 337.15 162.92 337.405 163.253C337.671 163.586 337.982 163.846 338.336 164.035C338.703 164.212 339.107 164.301 339.551 164.301C340.017 164.301 340.45 164.201 340.849 164.002C341.248 163.791 341.659 163.452 342.08 162.987L342.596 163.452ZM339.851 158.96C340.073 158.96 340.25 158.954 340.383 158.943C340.516 158.932 340.616 158.91 340.683 158.876C340.749 158.843 340.794 158.799 340.816 158.743C340.838 158.677 340.849 158.594 340.849 158.494C340.849 157.983 340.683 157.579 340.35 157.279C340.028 156.968 339.584 156.813 339.019 156.813C337.821 156.813 337.077 157.529 336.789 158.96H339.851ZM353.385 157.379H353.451C353.806 156.957 354.189 156.625 354.6 156.38C355.01 156.136 355.487 156.014 356.031 156.014C356.663 156.014 357.24 156.131 357.761 156.364C358.294 156.586 358.754 156.902 359.142 157.312C359.531 157.723 359.83 158.211 360.041 158.777C360.263 159.331 360.374 159.941 360.374 160.607C360.374 161.284 360.263 161.905 360.041 162.471C359.819 163.025 359.514 163.502 359.126 163.902C358.737 164.301 358.277 164.612 357.745 164.834C357.212 165.055 356.635 165.166 356.014 165.166C355.504 165.166 355.038 165.083 354.616 164.917C354.206 164.739 353.818 164.456 353.451 164.068V166.498C353.451 166.941 353.474 167.296 353.518 167.563C353.562 167.829 353.651 168.034 353.784 168.178C353.917 168.322 354.106 168.422 354.35 168.478C354.605 168.533 354.938 168.567 355.348 168.578V169.16H350.223V168.578C350.556 168.567 350.822 168.533 351.022 168.478C351.233 168.422 351.394 168.322 351.505 168.178C351.627 168.034 351.71 167.834 351.754 167.579C351.799 167.335 351.821 167.013 351.821 166.614V160.391C351.821 159.747 351.81 159.22 351.787 158.81C351.776 158.399 351.749 158.117 351.704 157.961C351.649 157.695 351.521 157.518 351.322 157.429C351.122 157.329 350.745 157.279 350.19 157.279V156.713L353.385 156.081V157.379ZM353.884 157.861C353.74 158.083 353.629 158.35 353.551 158.66C353.485 158.96 353.451 159.353 353.451 159.842V161.14C353.451 161.439 353.457 161.7 353.468 161.922C353.49 162.132 353.518 162.315 353.551 162.471C353.585 162.626 353.629 162.765 353.684 162.887C353.74 163.009 353.812 163.125 353.901 163.236C354.156 163.591 354.461 163.868 354.816 164.068C355.171 164.257 355.543 164.351 355.931 164.351C356.696 164.351 357.312 164.029 357.778 163.386C358.255 162.743 358.493 161.838 358.493 160.674C358.493 160.097 358.427 159.575 358.294 159.109C358.172 158.632 357.994 158.228 357.761 157.895C357.528 157.551 357.245 157.285 356.913 157.096C356.591 156.907 356.23 156.813 355.831 156.813C355.432 156.813 355.06 156.907 354.716 157.096C354.383 157.273 354.106 157.529 353.884 157.861ZM367.824 160.075C367.191 160.319 366.653 160.557 366.21 160.79C365.777 161.023 365.427 161.256 365.161 161.489C364.895 161.722 364.701 161.955 364.579 162.188C364.468 162.421 364.412 162.659 364.412 162.903C364.412 163.269 364.534 163.569 364.778 163.802C365.023 164.035 365.344 164.151 365.744 164.151C366.032 164.151 366.298 164.079 366.542 163.935C366.797 163.791 367.019 163.597 367.208 163.353C367.397 163.097 367.546 162.804 367.657 162.471C367.768 162.127 367.824 161.766 367.824 161.389V160.075ZM367.824 159.359V158.677C367.824 157.323 367.247 156.647 366.093 156.647C365.904 156.647 365.744 156.663 365.61 156.697C365.477 156.73 365.366 156.785 365.278 156.863C365.189 156.941 365.106 157.052 365.028 157.196C364.962 157.34 364.895 157.518 364.828 157.728C364.706 158.05 364.584 158.266 364.462 158.377C364.351 158.477 364.185 158.527 363.963 158.527C363.408 158.527 363.131 158.25 363.131 157.695C363.131 157.163 363.414 156.752 363.98 156.464C364.546 156.164 365.35 156.014 366.393 156.014C367.502 156.014 368.29 156.214 368.755 156.613C369.221 157.002 369.454 157.667 369.454 158.61V162.338C369.454 163.602 369.704 164.235 370.203 164.235C370.358 164.235 370.508 164.218 370.652 164.185C370.797 164.14 370.919 164.035 371.018 163.868L371.251 164.268C371.118 164.523 370.874 164.739 370.519 164.917C370.164 165.083 369.793 165.166 369.404 165.166C368.916 165.166 368.55 165.011 368.306 164.7C368.073 164.39 367.957 163.952 367.957 163.386H367.874C367.585 163.929 367.186 164.362 366.675 164.684C366.165 164.994 365.599 165.15 364.978 165.15C364.279 165.15 363.73 164.972 363.331 164.617C362.931 164.262 362.732 163.785 362.732 163.186C362.732 162.92 362.776 162.665 362.865 162.421C362.965 162.177 363.12 161.944 363.331 161.722C363.542 161.5 363.819 161.284 364.163 161.073C364.507 160.851 364.928 160.629 365.427 160.407L367.824 159.359ZM375.756 162.354C375.756 162.809 375.767 163.17 375.789 163.436C375.812 163.702 375.867 163.907 375.956 164.052C376.056 164.185 376.194 164.273 376.372 164.318C376.549 164.362 376.799 164.395 377.121 164.418V165H372.694V164.418C373.016 164.407 373.271 164.379 373.46 164.334C373.648 164.279 373.793 164.185 373.892 164.052C373.992 163.918 374.053 163.73 374.075 163.486C374.109 163.231 374.125 162.892 374.125 162.471V160.524C374.125 159.769 374.114 159.182 374.092 158.76C374.081 158.338 374.026 158.028 373.926 157.828C373.837 157.628 373.693 157.512 373.493 157.479C373.293 157.434 373.016 157.412 372.661 157.412V156.83L375.573 156.197L375.806 158.261H375.873C376.017 157.928 376.194 157.623 376.405 157.346C376.627 157.068 376.865 156.835 377.121 156.647C377.376 156.447 377.642 156.292 377.919 156.181C378.197 156.07 378.479 156.014 378.768 156.014C379.123 156.014 379.4 156.103 379.6 156.281C379.811 156.447 379.916 156.674 379.916 156.963C379.916 157.229 379.833 157.44 379.666 157.595C379.5 157.739 379.262 157.812 378.951 157.812C378.773 157.812 378.624 157.789 378.502 157.745C378.38 157.701 378.269 157.656 378.169 157.612C378.08 157.556 377.991 157.506 377.903 157.462C377.825 157.418 377.736 157.396 377.636 157.396C377.337 157.396 377.037 157.59 376.738 157.978C376.438 158.355 376.205 158.838 376.039 159.426C375.95 159.747 375.878 160.113 375.823 160.524C375.778 160.923 375.756 161.345 375.756 161.788V162.354ZM381.49 157.229V156.613C382.078 156.27 382.538 155.926 382.871 155.582C383.204 155.238 383.459 154.827 383.636 154.35H384.119V156.447H386.348V157.229H384.119V162.288C384.119 162.676 384.135 163.003 384.169 163.269C384.213 163.536 384.28 163.752 384.368 163.918C384.457 164.074 384.574 164.185 384.718 164.251C384.862 164.318 385.045 164.351 385.267 164.351C385.544 164.351 385.777 164.296 385.966 164.185C386.165 164.063 386.36 163.863 386.548 163.586L386.964 163.902C386.809 164.312 386.537 164.628 386.149 164.85C385.772 165.061 385.3 165.166 384.734 165.166C384.002 165.166 383.442 164.994 383.054 164.651C382.677 164.296 382.488 163.791 382.488 163.136V157.229H381.49ZM396.631 163.452C395.688 164.595 394.518 165.166 393.12 165.166C392.465 165.166 391.872 165.061 391.339 164.85C390.807 164.628 390.346 164.323 389.958 163.935C389.581 163.536 389.287 163.064 389.076 162.521C388.865 161.966 388.76 161.356 388.76 160.69C388.76 160.014 388.871 159.387 389.093 158.81C389.315 158.233 389.625 157.739 390.025 157.329C390.435 156.919 390.918 156.597 391.472 156.364C392.038 156.131 392.654 156.014 393.319 156.014C394.396 156.014 395.228 156.308 395.815 156.896C396.403 157.473 396.697 158.305 396.697 159.392C396.697 159.548 396.664 159.642 396.598 159.675C396.542 159.708 396.403 159.725 396.182 159.725H390.707C390.685 159.814 390.668 159.925 390.657 160.058C390.646 160.18 390.64 160.319 390.64 160.474C390.64 161.051 390.707 161.578 390.84 162.055C390.984 162.521 391.184 162.92 391.439 163.253C391.705 163.586 392.016 163.846 392.371 164.035C392.737 164.212 393.142 164.301 393.586 164.301C394.052 164.301 394.484 164.201 394.884 164.002C395.283 163.791 395.693 163.452 396.115 162.987L396.631 163.452ZM393.885 158.96C394.107 158.96 394.285 158.954 394.418 158.943C394.551 158.932 394.651 158.91 394.717 158.876C394.784 158.843 394.828 158.799 394.85 158.743C394.873 158.677 394.884 158.594 394.884 158.494C394.884 157.983 394.717 157.579 394.384 157.279C394.063 156.968 393.619 156.813 393.053 156.813C391.855 156.813 391.112 157.529 390.823 158.96H393.885ZM399.747 165H399.38V162.138H399.796C400.229 163.702 401.017 164.484 402.159 164.484C402.603 164.484 402.953 164.379 403.208 164.168C403.474 163.946 403.607 163.613 403.607 163.17C403.607 163.003 403.579 162.865 403.524 162.754C403.479 162.632 403.385 162.51 403.241 162.388C403.108 162.254 402.914 162.105 402.659 161.938C402.414 161.772 402.087 161.561 401.677 161.306C401.3 161.073 400.972 160.857 400.695 160.657C400.418 160.457 400.185 160.258 399.996 160.058C399.808 159.847 399.663 159.625 399.563 159.392C399.475 159.159 399.43 158.888 399.43 158.577C399.43 158.2 399.491 157.856 399.613 157.545C399.747 157.224 399.924 156.952 400.146 156.73C400.368 156.508 400.628 156.336 400.928 156.214C401.227 156.081 401.555 156.014 401.91 156.014C402.209 156.014 402.52 156.064 402.842 156.164C403.163 156.253 403.446 156.375 403.69 156.53L404.023 156.181H404.339V158.577H403.907C403.662 157.9 403.396 157.418 403.108 157.129C402.819 156.841 402.464 156.697 402.043 156.697C401.666 156.697 401.361 156.796 401.128 156.996C400.906 157.196 400.795 157.473 400.795 157.828C400.795 158.017 400.823 158.183 400.878 158.327C400.945 158.46 401.044 158.594 401.178 158.727C401.311 158.86 401.477 158.999 401.677 159.143C401.888 159.276 402.137 159.431 402.426 159.609C402.903 159.908 403.307 160.174 403.64 160.407C403.984 160.64 404.262 160.873 404.472 161.106C404.683 161.328 404.838 161.561 404.938 161.805C405.038 162.049 405.088 162.327 405.088 162.637C405.088 163.425 404.833 164.046 404.323 164.501C403.812 164.945 403.141 165.166 402.309 165.166C401.444 165.166 400.701 164.917 400.079 164.418L399.747 165ZM420.999 163.452C420.056 164.595 418.886 165.166 417.488 165.166C416.834 165.166 416.24 165.061 415.708 164.85C415.175 164.628 414.715 164.323 414.327 163.935C413.95 163.536 413.656 163.064 413.445 162.521C413.234 161.966 413.129 161.356 413.129 160.69C413.129 160.014 413.24 159.387 413.461 158.81C413.683 158.233 413.994 157.739 414.393 157.329C414.804 156.919 415.286 156.597 415.841 156.364C416.407 156.131 417.022 156.014 417.688 156.014C418.764 156.014 419.596 156.308 420.184 156.896C420.772 157.473 421.066 158.305 421.066 159.392C421.066 159.548 421.033 159.642 420.966 159.675C420.911 159.708 420.772 159.725 420.55 159.725H415.075C415.053 159.814 415.037 159.925 415.026 160.058C415.014 160.18 415.009 160.319 415.009 160.474C415.009 161.051 415.075 161.578 415.209 162.055C415.353 162.521 415.553 162.92 415.808 163.253C416.074 163.586 416.385 163.846 416.739 164.035C417.106 164.212 417.51 164.301 417.954 164.301C418.42 164.301 418.853 164.201 419.252 164.002C419.651 163.791 420.062 163.452 420.483 162.987L420.999 163.452ZM418.254 158.96C418.476 158.96 418.653 158.954 418.786 158.943C418.919 158.932 419.019 158.91 419.086 158.876C419.152 158.843 419.197 158.799 419.219 158.743C419.241 158.677 419.252 158.594 419.252 158.494C419.252 157.983 419.086 157.579 418.753 157.279C418.431 156.968 417.987 156.813 417.422 156.813C416.224 156.813 415.48 157.529 415.192 158.96H418.254ZM426.162 162.404C426.162 162.826 426.178 163.164 426.212 163.419C426.245 163.674 426.312 163.874 426.411 164.018C426.522 164.162 426.672 164.262 426.861 164.318C427.06 164.373 427.321 164.407 427.643 164.418V165H423.05V164.418C423.383 164.407 423.649 164.373 423.849 164.318C424.048 164.251 424.204 164.151 424.315 164.018C424.437 163.885 424.514 163.702 424.548 163.469C424.592 163.225 424.614 162.909 424.614 162.521V155.349C424.614 154.75 424.603 154.251 424.581 153.851C424.57 153.441 424.548 153.163 424.514 153.019C424.459 152.764 424.326 152.592 424.115 152.503C423.915 152.415 423.549 152.37 423.017 152.37V151.804L426.162 151.189V162.404ZM437.613 163.452C436.67 164.595 435.5 165.166 434.102 165.166C433.448 165.166 432.854 165.061 432.322 164.85C431.789 164.628 431.329 164.323 430.941 163.935C430.564 163.536 430.27 163.064 430.059 162.521C429.848 161.966 429.743 161.356 429.743 160.69C429.743 160.014 429.854 159.387 430.075 158.81C430.297 158.233 430.608 157.739 431.007 157.329C431.418 156.919 431.9 156.597 432.455 156.364C433.021 156.131 433.636 156.014 434.302 156.014C435.378 156.014 436.21 156.308 436.798 156.896C437.386 157.473 437.68 158.305 437.68 159.392C437.68 159.548 437.647 159.642 437.58 159.675C437.525 159.708 437.386 159.725 437.164 159.725H431.689C431.667 159.814 431.651 159.925 431.64 160.058C431.628 160.18 431.623 160.319 431.623 160.474C431.623 161.051 431.689 161.578 431.823 162.055C431.967 162.521 432.166 162.92 432.422 163.253C432.688 163.586 432.998 163.846 433.353 164.035C433.72 164.212 434.124 164.301 434.568 164.301C435.034 164.301 435.467 164.201 435.866 164.002C436.265 163.791 436.676 163.452 437.097 162.987L437.613 163.452ZM434.868 158.96C435.09 158.96 435.267 158.954 435.4 158.943C435.533 158.932 435.633 158.91 435.7 158.876C435.766 158.843 435.811 158.799 435.833 158.743C435.855 158.677 435.866 158.594 435.866 158.494C435.866 157.983 435.7 157.579 435.367 157.279C435.045 156.968 434.601 156.813 434.036 156.813C432.838 156.813 432.094 157.529 431.806 158.96H434.868ZM447.718 163.619C447.318 164.107 446.803 164.49 446.17 164.767C445.538 165.033 444.856 165.166 444.124 165.166C443.536 165.166 442.992 165.061 442.493 164.85C442.005 164.628 441.583 164.323 441.228 163.935C440.873 163.536 440.596 163.059 440.396 162.504C440.208 161.949 440.113 161.334 440.113 160.657C440.113 159.947 440.224 159.309 440.446 158.743C440.668 158.167 440.979 157.678 441.378 157.279C441.788 156.869 442.277 156.558 442.842 156.347C443.419 156.125 444.051 156.014 444.739 156.014C445.172 156.014 445.566 156.053 445.921 156.131C446.276 156.197 446.581 156.297 446.836 156.43C447.102 156.552 447.307 156.708 447.452 156.896C447.596 157.074 447.668 157.268 447.668 157.479C447.668 157.701 447.596 157.873 447.452 157.995C447.307 158.117 447.108 158.178 446.853 158.178C446.653 158.178 446.486 158.139 446.353 158.061C446.22 157.972 446.048 157.784 445.838 157.495C445.616 157.24 445.399 157.063 445.189 156.963C444.989 156.852 444.728 156.796 444.406 156.796C443.619 156.796 443.02 157.102 442.609 157.712C442.21 158.322 442.01 159.22 442.01 160.407C442.01 161.683 442.232 162.654 442.676 163.319C443.131 163.974 443.791 164.301 444.656 164.301C445.122 164.301 445.56 164.212 445.971 164.035C446.381 163.846 446.797 163.547 447.219 163.136L447.718 163.619ZM449.717 157.229V156.613C450.305 156.27 450.765 155.926 451.098 155.582C451.431 155.238 451.686 154.827 451.863 154.35H452.346V156.447H454.576V157.229H452.346V162.288C452.346 162.676 452.363 163.003 452.396 163.269C452.44 163.536 452.507 163.752 452.596 163.918C452.684 164.074 452.801 164.185 452.945 164.251C453.089 164.318 453.272 164.351 453.494 164.351C453.771 164.351 454.004 164.296 454.193 164.185C454.393 164.063 454.587 163.863 454.775 163.586L455.191 163.902C455.036 164.312 454.764 164.628 454.376 164.85C453.999 165.061 453.527 165.166 452.962 165.166C452.229 165.166 451.669 164.994 451.281 164.651C450.904 164.296 450.715 163.791 450.715 163.136V157.229H449.717ZM459.866 162.354C459.866 162.809 459.877 163.17 459.899 163.436C459.922 163.702 459.977 163.907 460.066 164.052C460.166 164.185 460.304 164.273 460.482 164.318C460.659 164.362 460.909 164.395 461.231 164.418V165H456.804V164.418C457.126 164.407 457.381 164.379 457.57 164.334C457.758 164.279 457.903 164.185 458.002 164.052C458.102 163.918 458.163 163.73 458.185 163.486C458.219 163.231 458.235 162.892 458.235 162.471V160.524C458.235 159.769 458.224 159.182 458.202 158.76C458.191 158.338 458.136 158.028 458.036 157.828C457.947 157.628 457.803 157.512 457.603 157.479C457.403 157.434 457.126 157.412 456.771 157.412V156.83L459.683 156.197L459.916 158.261H459.983C460.127 157.928 460.304 157.623 460.515 157.346C460.737 157.068 460.975 156.835 461.231 156.647C461.486 156.447 461.752 156.292 462.029 156.181C462.307 156.07 462.589 156.014 462.878 156.014C463.233 156.014 463.51 156.103 463.71 156.281C463.921 156.447 464.026 156.674 464.026 156.963C464.026 157.229 463.943 157.44 463.776 157.595C463.61 157.739 463.372 157.812 463.061 157.812C462.883 157.812 462.734 157.789 462.612 157.745C462.49 157.701 462.379 157.656 462.279 157.612C462.19 157.556 462.101 157.506 462.013 157.462C461.935 157.418 461.846 157.396 461.746 157.396C461.447 157.396 461.147 157.59 460.848 157.978C460.548 158.355 460.315 158.838 460.149 159.426C460.06 159.747 459.988 160.113 459.933 160.524C459.888 160.923 459.866 161.345 459.866 161.788V162.354ZM470.163 156.014C470.796 156.014 471.395 156.131 471.96 156.364C472.526 156.586 473.02 156.896 473.441 157.296C473.874 157.695 474.212 158.172 474.456 158.727C474.712 159.27 474.839 159.869 474.839 160.524C474.839 161.201 474.712 161.822 474.456 162.388C474.212 162.953 473.874 163.441 473.441 163.852C473.02 164.262 472.526 164.584 471.96 164.817C471.395 165.05 470.796 165.166 470.163 165.166C469.542 165.166 468.949 165.055 468.383 164.834C467.828 164.601 467.34 164.279 466.918 163.868C466.497 163.458 466.164 162.97 465.92 162.404C465.676 161.827 465.554 161.201 465.554 160.524C465.554 159.869 465.676 159.265 465.92 158.71C466.164 158.155 466.497 157.678 466.918 157.279C467.34 156.88 467.828 156.569 468.383 156.347C468.949 156.125 469.542 156.014 470.163 156.014ZM470.163 156.813C469.753 156.813 469.376 156.902 469.032 157.079C468.699 157.257 468.411 157.512 468.166 157.845C467.933 158.167 467.75 158.56 467.617 159.026C467.495 159.481 467.434 159.986 467.434 160.54C467.434 161.117 467.495 161.639 467.617 162.105C467.75 162.571 467.933 162.97 468.166 163.303C468.411 163.624 468.699 163.874 469.032 164.052C469.365 164.229 469.742 164.318 470.163 164.318C470.585 164.318 470.968 164.229 471.311 164.052C471.655 163.874 471.949 163.619 472.193 163.286C472.437 162.953 472.626 162.554 472.759 162.088C472.892 161.622 472.959 161.106 472.959 160.54C472.959 159.986 472.892 159.481 472.759 159.026C472.626 158.571 472.437 158.183 472.193 157.861C471.949 157.529 471.655 157.273 471.311 157.096C470.968 156.907 470.585 156.813 470.163 156.813ZM480.152 162.338C480.152 162.804 480.163 163.17 480.185 163.436C480.208 163.702 480.263 163.907 480.352 164.052C480.452 164.185 480.59 164.273 480.768 164.318C480.945 164.362 481.195 164.395 481.517 164.418V165H477.09V164.418C477.412 164.395 477.667 164.362 477.856 164.318C478.044 164.273 478.189 164.185 478.288 164.052C478.388 163.918 478.449 163.73 478.472 163.486C478.505 163.231 478.521 162.892 478.521 162.471V160.341C478.521 159.708 478.51 159.182 478.488 158.76C478.477 158.338 478.449 158.05 478.405 157.895C478.372 157.751 478.333 157.64 478.288 157.562C478.244 157.473 478.172 157.407 478.072 157.362C477.972 157.307 477.839 157.273 477.673 157.262C477.518 157.24 477.312 157.229 477.057 157.229V156.647L479.769 156.014L479.986 157.678H480.069C480.568 157.113 481.09 156.697 481.633 156.43C482.188 156.153 482.798 156.014 483.464 156.014C484.162 156.014 484.75 156.159 485.227 156.447C485.704 156.724 486.037 157.129 486.226 157.662H486.292C486.703 157.14 487.202 156.735 487.79 156.447C488.378 156.159 489.005 156.014 489.67 156.014C490.192 156.014 490.663 156.103 491.085 156.281C491.517 156.447 491.845 156.68 492.066 156.98C492.266 157.235 492.405 157.573 492.482 157.995C492.571 158.405 492.616 158.971 492.616 159.692V162.338C492.616 162.792 492.627 163.153 492.649 163.419C492.682 163.685 492.743 163.891 492.832 164.035C492.921 164.179 493.054 164.273 493.231 164.318C493.42 164.362 493.675 164.395 493.997 164.418V165H489.57V164.418C489.881 164.407 490.131 164.379 490.319 164.334C490.508 164.279 490.652 164.185 490.752 164.052C490.852 163.907 490.913 163.713 490.935 163.469C490.968 163.225 490.985 162.892 490.985 162.471V160.374C490.985 159.742 490.952 159.209 490.885 158.777C490.818 158.333 490.707 157.978 490.552 157.712C490.397 157.434 490.192 157.235 489.936 157.113C489.692 156.991 489.393 156.93 489.038 156.93C488.55 156.93 488.089 157.068 487.657 157.346C487.235 157.612 486.902 157.972 486.658 158.427C486.603 158.538 486.553 158.649 486.509 158.76C486.475 158.86 486.448 158.976 486.425 159.109C486.403 159.231 486.387 159.381 486.376 159.559C486.376 159.736 486.376 159.958 486.376 160.224V162.338C486.376 162.792 486.387 163.153 486.409 163.419C486.431 163.685 486.486 163.891 486.575 164.035C486.675 164.179 486.819 164.273 487.008 164.318C487.196 164.362 487.452 164.395 487.773 164.418V165H483.347V164.418C483.658 164.395 483.907 164.362 484.096 164.318C484.284 164.273 484.423 164.185 484.512 164.052C484.612 163.918 484.673 163.73 484.695 163.486C484.728 163.231 484.745 162.892 484.745 162.471V160.374C484.745 159.731 484.712 159.193 484.645 158.76C484.578 158.316 484.467 157.961 484.312 157.695C484.168 157.418 483.974 157.224 483.73 157.113C483.486 156.991 483.186 156.93 482.831 156.93C482.332 156.93 481.861 157.068 481.417 157.346C480.984 157.612 480.657 157.972 480.435 158.427C480.38 158.538 480.33 158.649 480.285 158.76C480.252 158.86 480.224 158.976 480.202 159.109C480.18 159.231 480.163 159.381 480.152 159.559C480.152 159.736 480.152 159.958 480.152 160.224V162.338ZM503.852 163.452C502.909 164.595 501.738 165.166 500.341 165.166C499.686 165.166 499.093 165.061 498.56 164.85C498.028 164.628 497.567 164.323 497.179 163.935C496.802 163.536 496.508 163.064 496.297 162.521C496.086 161.966 495.981 161.356 495.981 160.69C495.981 160.014 496.092 159.387 496.314 158.81C496.535 158.233 496.846 157.739 497.245 157.329C497.656 156.919 498.138 156.597 498.693 156.364C499.259 156.131 499.875 156.014 500.54 156.014C501.616 156.014 502.448 156.308 503.036 156.896C503.624 157.473 503.918 158.305 503.918 159.392C503.918 159.548 503.885 159.642 503.818 159.675C503.763 159.708 503.624 159.725 503.402 159.725H497.928C497.906 159.814 497.889 159.925 497.878 160.058C497.867 160.18 497.861 160.319 497.861 160.474C497.861 161.051 497.928 161.578 498.061 162.055C498.205 162.521 498.405 162.92 498.66 163.253C498.926 163.586 499.237 163.846 499.592 164.035C499.958 164.212 500.363 164.301 500.806 164.301C501.272 164.301 501.705 164.201 502.104 164.002C502.504 163.791 502.914 163.452 503.336 162.987L503.852 163.452ZM501.106 158.96C501.328 158.96 501.505 158.954 501.638 158.943C501.772 158.932 501.871 158.91 501.938 158.876C502.005 158.843 502.049 158.799 502.071 158.743C502.093 158.677 502.104 158.594 502.104 158.494C502.104 157.983 501.938 157.579 501.605 157.279C501.283 156.968 500.84 156.813 500.274 156.813C499.076 156.813 498.333 157.529 498.044 158.96H501.106ZM513.956 163.619C513.557 164.107 513.041 164.49 512.409 164.767C511.776 165.033 511.094 165.166 510.362 165.166C509.774 165.166 509.23 165.061 508.731 164.85C508.243 164.628 507.821 164.323 507.466 163.935C507.112 163.536 506.834 163.059 506.634 162.504C506.446 161.949 506.352 161.334 506.352 160.657C506.352 159.947 506.463 159.309 506.684 158.743C506.906 158.167 507.217 157.678 507.616 157.279C508.027 156.869 508.515 156.558 509.081 156.347C509.657 156.125 510.29 156.014 510.978 156.014C511.41 156.014 511.804 156.053 512.159 156.131C512.514 156.197 512.819 156.297 513.074 156.43C513.34 156.552 513.546 156.708 513.69 156.896C513.834 157.074 513.906 157.268 513.906 157.479C513.906 157.701 513.834 157.873 513.69 157.995C513.546 158.117 513.346 158.178 513.091 158.178C512.891 158.178 512.725 158.139 512.592 158.061C512.458 157.972 512.287 157.784 512.076 157.495C511.854 157.24 511.638 157.063 511.427 156.963C511.227 156.852 510.966 156.796 510.645 156.796C509.857 156.796 509.258 157.102 508.848 157.712C508.448 158.322 508.249 159.22 508.249 160.407C508.249 161.683 508.47 162.654 508.914 163.319C509.369 163.974 510.029 164.301 510.894 164.301C511.36 164.301 511.798 164.212 512.209 164.035C512.619 163.846 513.035 163.547 513.457 163.136L513.956 163.619ZM521.097 160.075C520.465 160.319 519.927 160.557 519.483 160.79C519.05 161.023 518.701 161.256 518.434 161.489C518.168 161.722 517.974 161.955 517.852 162.188C517.741 162.421 517.686 162.659 517.686 162.903C517.686 163.269 517.808 163.569 518.052 163.802C518.296 164.035 518.617 164.151 519.017 164.151C519.305 164.151 519.572 164.079 519.816 163.935C520.071 163.791 520.293 163.597 520.481 163.353C520.67 163.097 520.82 162.804 520.93 162.471C521.041 162.127 521.097 161.766 521.097 161.389V160.075ZM521.097 159.359V158.677C521.097 157.323 520.52 156.647 519.366 156.647C519.178 156.647 519.017 156.663 518.884 156.697C518.751 156.73 518.64 156.785 518.551 156.863C518.462 156.941 518.379 157.052 518.301 157.196C518.235 157.34 518.168 157.518 518.102 157.728C517.98 158.05 517.858 158.266 517.736 158.377C517.625 158.477 517.458 158.527 517.236 158.527C516.682 158.527 516.404 158.25 516.404 157.695C516.404 157.163 516.687 156.752 517.253 156.464C517.819 156.164 518.623 156.014 519.666 156.014C520.775 156.014 521.563 156.214 522.029 156.613C522.495 157.002 522.728 157.667 522.728 158.61V162.338C522.728 163.602 522.977 164.235 523.476 164.235C523.632 164.235 523.781 164.218 523.926 164.185C524.07 164.14 524.192 164.035 524.292 163.868L524.525 164.268C524.392 164.523 524.148 164.739 523.793 164.917C523.438 165.083 523.066 165.166 522.678 165.166C522.19 165.166 521.823 165.011 521.579 164.7C521.346 164.39 521.23 163.952 521.23 163.386H521.147C520.858 163.929 520.459 164.362 519.949 164.684C519.438 164.994 518.873 165.15 518.251 165.15C517.553 165.15 517.003 164.972 516.604 164.617C516.205 164.262 516.005 163.785 516.005 163.186C516.005 162.92 516.049 162.665 516.138 162.421C516.238 162.177 516.393 161.944 516.604 161.722C516.815 161.5 517.092 161.284 517.436 161.073C517.78 160.851 518.201 160.629 518.701 160.407L521.097 159.359ZM518.201 154.167L520.365 152.187C520.764 151.821 521.136 151.638 521.48 151.638C521.668 151.638 521.818 151.688 521.929 151.788C522.051 151.888 522.112 152.032 522.112 152.22C522.112 152.398 522.034 152.559 521.879 152.703C521.735 152.836 521.529 152.964 521.263 153.086L518.984 154.167H518.201ZM528.93 162.388C528.93 162.842 528.941 163.203 528.963 163.469C528.985 163.724 529.04 163.924 529.129 164.068C529.229 164.201 529.368 164.29 529.545 164.334C529.734 164.379 529.989 164.412 530.311 164.434V165H525.951V164.434C526.262 164.412 526.506 164.379 526.683 164.334C526.872 164.29 527.016 164.201 527.116 164.068C527.216 163.935 527.277 163.746 527.299 163.502C527.332 163.258 527.349 162.926 527.349 162.504V160.291C527.349 158.971 527.315 158.167 527.249 157.878C527.216 157.734 527.171 157.617 527.116 157.529C527.071 157.429 526.999 157.357 526.899 157.312C526.8 157.257 526.672 157.224 526.517 157.212C526.361 157.19 526.162 157.179 525.918 157.179V156.647L528.58 156.014L528.78 157.662H528.846C529.268 157.14 529.762 156.735 530.327 156.447C530.893 156.159 531.509 156.014 532.174 156.014C532.685 156.014 533.151 156.098 533.572 156.264C533.994 156.43 534.315 156.658 534.537 156.946C534.726 157.201 534.859 157.534 534.937 157.945C535.014 158.344 535.053 158.899 535.053 159.609V162.388C535.053 162.842 535.064 163.203 535.086 163.469C535.12 163.724 535.181 163.924 535.269 164.068C535.358 164.201 535.491 164.29 535.669 164.334C535.857 164.379 536.101 164.412 536.401 164.434V165H532.091V164.434C532.402 164.423 532.646 164.395 532.823 164.351C533.012 164.296 533.151 164.201 533.239 164.068C533.339 163.935 533.4 163.746 533.422 163.502C533.456 163.247 533.472 162.914 533.472 162.504V160.308C533.472 159.675 533.439 159.143 533.372 158.71C533.306 158.277 533.195 157.928 533.04 157.662C532.895 157.396 532.701 157.207 532.457 157.096C532.213 156.974 531.919 156.913 531.575 156.913C531.076 156.913 530.616 157.046 530.194 157.312C529.784 157.567 529.462 157.922 529.229 158.377C529.174 158.488 529.124 158.594 529.079 158.693C529.046 158.793 529.018 158.91 528.996 159.043C528.974 159.176 528.957 159.331 528.946 159.509C528.935 159.675 528.93 159.892 528.93 160.158V162.388ZM541.434 162.354C541.434 162.787 541.45 163.136 541.484 163.403C541.528 163.658 541.606 163.863 541.717 164.018C541.828 164.162 541.983 164.262 542.182 164.318C542.382 164.373 542.648 164.407 542.981 164.418V165H538.206V164.418C538.538 164.407 538.81 164.373 539.021 164.318C539.232 164.251 539.393 164.151 539.503 164.018C539.625 163.874 539.703 163.68 539.736 163.436C539.781 163.181 539.803 162.859 539.803 162.471V160.341C539.803 159.697 539.792 159.17 539.77 158.76C539.759 158.338 539.731 158.05 539.686 157.895C539.631 157.64 539.503 157.468 539.304 157.379C539.104 157.279 538.727 157.229 538.172 157.229V156.647L541.434 156.014V162.354ZM539.52 152.636C539.52 152.348 539.62 152.104 539.82 151.904C540.019 151.705 540.263 151.605 540.552 151.605C540.84 151.605 541.084 151.705 541.284 151.904C541.484 152.104 541.583 152.348 541.583 152.636C541.583 152.925 541.484 153.169 541.284 153.369C541.084 153.568 540.84 153.668 540.552 153.668C540.263 153.668 540.019 153.568 539.82 153.369C539.62 153.169 539.52 152.925 539.52 152.636ZM552.563 163.619C552.163 164.107 551.648 164.49 551.015 164.767C550.383 165.033 549.701 165.166 548.969 165.166C548.381 165.166 547.837 165.061 547.338 164.85C546.85 164.628 546.428 164.323 546.073 163.935C545.718 163.536 545.441 163.059 545.241 162.504C545.053 161.949 544.958 161.334 544.958 160.657C544.958 159.947 545.069 159.309 545.291 158.743C545.513 158.167 545.824 157.678 546.223 157.279C546.633 156.869 547.122 156.558 547.687 156.347C548.264 156.125 548.896 156.014 549.584 156.014C550.017 156.014 550.411 156.053 550.766 156.131C551.121 156.197 551.426 156.297 551.681 156.43C551.947 156.552 552.152 156.708 552.297 156.896C552.441 157.074 552.513 157.268 552.513 157.479C552.513 157.701 552.441 157.873 552.297 157.995C552.152 158.117 551.953 158.178 551.698 158.178C551.498 158.178 551.331 158.139 551.198 158.061C551.065 157.972 550.893 157.784 550.683 157.495C550.461 157.24 550.244 157.063 550.034 156.963C549.834 156.852 549.573 156.796 549.251 156.796C548.464 156.796 547.865 157.102 547.454 157.712C547.055 158.322 546.855 159.22 546.855 160.407C546.855 161.683 547.077 162.654 547.521 163.319C547.976 163.974 548.636 164.301 549.501 164.301C549.967 164.301 550.405 164.212 550.816 164.035C551.226 163.846 551.642 163.547 552.064 163.136L552.563 163.619ZM559.704 160.075C559.071 160.319 558.533 160.557 558.09 160.79C557.657 161.023 557.307 161.256 557.041 161.489C556.775 161.722 556.581 161.955 556.459 162.188C556.348 162.421 556.292 162.659 556.292 162.903C556.292 163.269 556.414 163.569 556.658 163.802C556.903 164.035 557.224 164.151 557.624 164.151C557.912 164.151 558.178 164.079 558.422 163.935C558.677 163.791 558.899 163.597 559.088 163.353C559.277 163.097 559.426 162.804 559.537 162.471C559.648 162.127 559.704 161.766 559.704 161.389V160.075ZM559.704 159.359V158.677C559.704 157.323 559.127 156.647 557.973 156.647C557.784 156.647 557.624 156.663 557.49 156.697C557.357 156.73 557.246 156.785 557.158 156.863C557.069 156.941 556.986 157.052 556.908 157.196C556.842 157.34 556.775 157.518 556.708 157.728C556.586 158.05 556.464 158.266 556.342 158.377C556.231 158.477 556.065 158.527 555.843 158.527C555.288 158.527 555.011 158.25 555.011 157.695C555.011 157.163 555.294 156.752 555.86 156.464C556.426 156.164 557.23 156.014 558.273 156.014C559.382 156.014 560.17 156.214 560.635 156.613C561.101 157.002 561.334 157.667 561.334 158.61V162.338C561.334 163.602 561.584 164.235 562.083 164.235C562.238 164.235 562.388 164.218 562.532 164.185C562.677 164.14 562.799 164.035 562.898 163.868L563.131 164.268C562.998 164.523 562.754 164.739 562.399 164.917C562.044 165.083 561.673 165.166 561.284 165.166C560.796 165.166 560.43 165.011 560.186 164.7C559.953 164.39 559.837 163.952 559.837 163.386H559.754C559.465 163.929 559.066 164.362 558.555 164.684C558.045 164.994 557.479 165.15 556.858 165.15C556.159 165.15 555.61 164.972 555.211 164.617C554.811 164.262 554.612 163.785 554.612 163.186C554.612 162.92 554.656 162.665 554.745 162.421C554.845 162.177 555 161.944 555.211 161.722C555.422 161.5 555.699 161.284 556.043 161.073C556.387 160.851 556.808 160.629 557.307 160.407L559.704 159.359ZM565.373 165H565.007V162.138H565.423C565.856 163.702 566.643 164.484 567.786 164.484C568.23 164.484 568.579 164.379 568.834 164.168C569.1 163.946 569.234 163.613 569.234 163.17C569.234 163.003 569.206 162.865 569.15 162.754C569.106 162.632 569.012 162.51 568.867 162.388C568.734 162.254 568.54 162.105 568.285 161.938C568.041 161.772 567.714 161.561 567.303 161.306C566.926 161.073 566.599 160.857 566.322 160.657C566.044 160.457 565.811 160.258 565.623 160.058C565.434 159.847 565.29 159.625 565.19 159.392C565.101 159.159 565.057 158.888 565.057 158.577C565.057 158.2 565.118 157.856 565.24 157.545C565.373 157.224 565.551 156.952 565.772 156.73C565.994 156.508 566.255 156.336 566.554 156.214C566.854 156.081 567.181 156.014 567.536 156.014C567.836 156.014 568.146 156.064 568.468 156.164C568.79 156.253 569.073 156.375 569.317 156.53L569.65 156.181H569.966V158.577H569.533C569.289 157.9 569.023 157.418 568.734 157.129C568.446 156.841 568.091 156.697 567.669 156.697C567.292 156.697 566.987 156.796 566.754 156.996C566.532 157.196 566.421 157.473 566.421 157.828C566.421 158.017 566.449 158.183 566.505 158.327C566.571 158.46 566.671 158.594 566.804 158.727C566.937 158.86 567.104 158.999 567.303 159.143C567.514 159.276 567.764 159.431 568.052 159.609C568.529 159.908 568.934 160.174 569.267 160.407C569.611 160.64 569.888 160.873 570.099 161.106C570.31 161.328 570.465 161.561 570.565 161.805C570.665 162.049 570.714 162.327 570.714 162.637C570.714 163.425 570.459 164.046 569.949 164.501C569.439 164.945 568.768 165.166 567.936 165.166C567.07 165.166 566.327 164.917 565.706 164.418L565.373 165Z" fill="black"/>
<path d="M205.36 64.2H223.942C230.402 64.2 235.114 65.72 238.078 68.76C241.042 71.724 242.524 76.322 242.524 82.554V87.456C242.524 95.74 239.788 100.984 234.316 103.188V103.416C237.356 104.328 239.484 106.19 240.7 109.002C241.992 111.814 242.638 115.576 242.638 120.288V134.31C242.638 136.59 242.714 138.452 242.866 139.896C243.018 141.264 243.398 142.632 244.006 144H231.238C230.782 142.708 230.478 141.492 230.326 140.352C230.174 139.212 230.098 137.16 230.098 134.196V119.604C230.098 115.956 229.49 113.41 228.274 111.966C227.134 110.522 225.12 109.8 222.232 109.8H217.9V144H205.36V64.2ZM222.46 98.4C224.968 98.4 226.83 97.754 228.046 96.462C229.338 95.17 229.984 93.004 229.984 89.964V83.808C229.984 80.92 229.452 78.83 228.388 77.538C227.4 76.246 225.804 75.6 223.6 75.6H217.9V98.4H222.46ZM275.164 145.14C269.008 145.14 264.296 143.392 261.028 139.896C257.76 136.4 256.126 131.46 256.126 125.076V83.124C256.126 76.74 257.76 71.8 261.028 68.304C264.296 64.808 269.008 63.06 275.164 63.06C281.32 63.06 286.032 64.808 289.3 68.304C292.568 71.8 294.202 76.74 294.202 83.124V125.076C294.202 131.46 292.568 136.4 289.3 139.896C286.032 143.392 281.32 145.14 275.164 145.14ZM275.164 133.74C279.496 133.74 281.662 131.118 281.662 125.874V82.326C281.662 77.082 279.496 74.46 275.164 74.46C270.832 74.46 268.666 77.082 268.666 82.326V125.874C268.666 131.118 270.832 133.74 275.164 133.74ZM308.383 64.2H327.535C333.767 64.2 338.441 65.872 341.557 69.216C344.673 72.56 346.231 77.462 346.231 83.922V124.278C346.231 130.738 344.673 135.64 341.557 138.984C338.441 142.328 333.767 144 327.535 144H308.383V64.2ZM327.307 132.6C329.359 132.6 330.917 131.992 331.981 130.776C333.121 129.56 333.691 127.584 333.691 124.848V83.352C333.691 80.616 333.121 78.64 331.981 77.424C330.917 76.208 329.359 75.6 327.307 75.6H320.923V132.6H327.307ZM369.863 64.2H386.849L399.845 144H387.305L385.025 128.154V128.382H370.775L368.495 144H356.867L369.863 64.2ZM383.543 117.552L377.957 78.108H377.729L372.257 117.552H383.543ZM411.628 64.2H429.526L437.506 121.314H437.734L445.714 64.2H463.612V144H451.756V83.58H451.529L442.409 144H431.92L422.8 83.58H422.572V144H411.628V64.2ZM478.67 64.2H512.87V75.6H491.21V96.69H508.424V108.09H491.21V132.6H512.87V144H478.67V64.2ZM543.454 145.14C537.45 145.14 532.852 143.43 529.66 140.01C526.544 136.59 524.986 131.764 524.986 125.532V82.668C524.986 76.436 526.544 71.61 529.66 68.19C532.852 64.77 537.45 63.06 543.454 63.06C549.458 63.06 554.018 64.77 557.134 68.19C560.326 71.61 561.922 76.436 561.922 82.668V91.104H550.066V81.87C550.066 76.93 547.976 74.46 543.796 74.46C539.616 74.46 537.526 76.93 537.526 81.87V126.444C537.526 131.308 539.616 133.74 543.796 133.74C547.976 133.74 550.066 131.308 550.066 126.444V114.246H561.922V125.532C561.922 131.764 560.326 136.59 557.134 140.01C554.018 143.43 549.458 145.14 543.454 145.14ZM593.018 145.14C587.014 145.14 582.416 143.43 579.224 140.01C576.108 136.59 574.55 131.764 574.55 125.532V82.668C574.55 76.436 576.108 71.61 579.224 68.19C582.416 64.77 587.014 63.06 593.018 63.06C599.022 63.06 603.582 64.77 606.698 68.19C609.89 71.61 611.486 76.436 611.486 82.668V91.104H599.63V81.87C599.63 76.93 597.54 74.46 593.36 74.46C589.18 74.46 587.09 76.93 587.09 81.87V126.444C587.09 131.308 589.18 133.74 593.36 133.74C597.54 133.74 599.63 131.308 599.63 126.444V114.246H611.486V125.532C611.486 131.764 609.89 136.59 606.698 140.01C603.582 143.43 599.022 145.14 593.018 145.14Z" fill="black"/>
</svg>
