<svg width="175" height="175" viewBox="0 0 175 175" fill="none" xmlns="http://www.w3.org/2000/svg">
<circle cx="87.5" cy="87.5" r="87.5" fill="#4B5656"/>
<circle cx="87.5" cy="87.5" r="62.0455" fill="#00C2CB"/>
<ellipse cx="87.5" cy="14.3182" rx="7.95454" ry="7.95455" fill="#00C2CB"/>
<ellipse cx="141.591" cy="36.591" rx="7.95454" ry="7.95455" fill="#00C2CB"/>
<circle cx="163.864" cy="87.5" r="7.95454" fill="#00C2CB"/>
<ellipse cx="11.1363" cy="87.5" rx="7.95455" ry="7.95454" fill="#00C2CB"/>
<ellipse cx="33.4091" cy="138.409" rx="7.95455" ry="7.95455" fill="#00C2CB"/>
<ellipse cx="87.5" cy="163.864" rx="7.95454" ry="7.95456" fill="#00C2CB"/>
<ellipse cx="141.591" cy="138.409" rx="7.95454" ry="7.95455" fill="#00C2CB"/>
<circle cx="33.4091" cy="36.591" r="7.95455" fill="#00C2CB"/>
<path d="M107.937 59.4356C108.718 58.6545 109.984 58.6545 110.765 59.4356L115.877 64.5479C116.659 65.329 116.659 66.5953 115.877 67.3763L104.81 78.4443C104.028 79.2253 102.762 79.2253 101.981 78.4443L96.8688 73.3319C96.0877 72.5509 96.0877 71.2845 96.8688 70.5035L107.937 59.4356Z" fill="#4B5656"/>
<path d="M71.4394 95.933C72.2204 95.1519 73.4867 95.1519 74.2678 95.933L79.3801 101.045C80.1612 101.826 80.1612 103.093 79.3801 103.874L68.3122 114.942C67.5312 115.723 66.2648 115.723 65.4838 114.942L60.3714 109.829C59.5904 109.048 59.5904 107.782 60.3714 107.001L71.4394 95.933Z" fill="#4B5656"/>
<path d="M82.3529 104.941C82.3529 103.837 83.2484 102.941 84.3529 102.941H91.5829C92.6874 102.941 93.5829 103.837 93.5829 104.941V120.594C93.5829 121.698 92.6874 122.594 91.5829 122.594H84.3529C83.2484 122.594 82.3529 121.698 82.3529 120.594V104.941Z" fill="#4B5656"/>
<path d="M82.3529 53.4706C82.3529 52.366 83.2484 51.4706 84.3529 51.4706H91.5829C92.6874 51.4706 93.5829 52.366 93.5829 53.4706V69.123C93.5829 70.2276 92.6874 71.123 91.5829 71.123H84.3529C83.2484 71.123 82.3529 70.2276 82.3529 69.123V53.4706Z" fill="#4B5656"/>
<path d="M96.831 103.698C96.0708 102.897 96.1042 101.631 96.9056 100.871L102.151 95.8951C102.952 95.1349 104.218 95.1683 104.978 95.9697L115.751 107.326C116.511 108.127 116.477 109.393 115.676 110.153L110.431 115.129C109.629 115.889 108.363 115.856 107.603 115.054L96.831 103.698Z" fill="#4B5656"/>
<path d="M60.3336 66.2652C59.5735 65.4638 59.6069 64.1979 60.4082 63.4377L65.6536 58.462C66.455 57.7018 67.7209 57.7352 68.4811 58.5366L79.2533 69.8925C80.0134 70.6939 79.9801 71.9597 79.1787 72.7199L73.9333 77.6957C73.1319 78.4559 71.866 78.4225 71.1059 77.6211L60.3336 66.2652Z" fill="#4B5656"/>
<path d="M121.529 81.4171C122.634 81.4171 123.529 82.3125 123.529 83.4171L123.529 90.647C123.529 91.7516 122.634 92.647 121.529 92.647L105.877 92.647C104.772 92.647 103.877 91.7516 103.877 90.647L103.877 83.4171C103.877 82.3125 104.772 81.4171 105.877 81.4171L121.529 81.4171Z" fill="#4B5656"/>
<path d="M70.0588 81.4171C71.1634 81.4171 72.0588 82.3125 72.0588 83.4171L72.0588 90.647C72.0588 91.7516 71.1634 92.647 70.0588 92.647L54.4064 92.647C53.3018 92.647 52.4064 91.7516 52.4064 90.647L52.4064 83.4171C52.4064 82.3125 53.3018 81.4171 54.4064 81.4171L70.0588 81.4171Z" fill="#4B5656"/>
<ellipse cx="87.9679" cy="87.5" rx="26.2032" ry="25.7353" fill="#4B5656"/>
<circle cx="88.4358" cy="87.5" r="16.377" fill="#00C2CB"/>
</svg>
